<svg id="Layer_1" data-name="Layer 1" xmlns="http://www.w3.org/2000/svg" xmlns:xlink="http://www.w3.org/1999/xlink" viewBox="0 0 809.37 822.42"><defs><style>.cls-1{fill:#21bfb7;}.cls-2{fill:url(#linear-gradient);}.cls-3{fill:url(#linear-gradient-2);}.cls-4{fill:url(#linear-gradient-3);}.cls-5{opacity:0;font-size:101px;font-family:Rockwell-ExtraBold, Rockwell Extra Bold;font-weight:800;letter-spacing:0.07em;}.cls-6{letter-spacing:0.11em;}.cls-7{letter-spacing:0.11em;}.cls-8{letter-spacing:0.03em;}.cls-9{letter-spacing:0.11em;}.cls-10{letter-spacing:0.03em;}</style><linearGradient id="linear-gradient" x1="6857.32" y1="7246.17" x2="7541.68" y2="7246.17" gradientUnits="userSpaceOnUse"><stop offset="0" stop-color="#6f60aa"/><stop offset="0.52" stop-color="#3e317d"/><stop offset="1" stop-color="#150958"/></linearGradient><linearGradient id="linear-gradient-2" x1="7033.66" y1="6984.58" x2="7206.37" y2="6984.58" gradientUnits="userSpaceOnUse"><stop offset="0" stop-color="#00b6f1"/><stop offset="0.19" stop-color="#00b5f1" stop-opacity="0.83"/><stop offset="0.62" stop-color="#00b1f0" stop-opacity="0.4"/><stop offset="1" stop-color="#00aeef" stop-opacity="0"/></linearGradient><linearGradient id="linear-gradient-3" x1="6969.44" y1="7409.68" x2="7042.24" y2="7358.71" gradientUnits="userSpaceOnUse"><stop offset="0" stop-color="#826aaf"/><stop offset="0.25" stop-color="#7c67ad" stop-opacity="0.67"/><stop offset="0.5" stop-color="#7664ac" stop-opacity="0.38"/><stop offset="0.71" stop-color="#7262ab" stop-opacity="0.17"/><stop offset="0.89" stop-color="#7060aa" stop-opacity="0.05"/><stop offset="1" stop-color="#6f60aa" stop-opacity="0"/></linearGradient></defs><path class="cls-1" d="M7290.5,7239.43c36.16-112.82,43.89-233.8,23.55-350.19a353.71,353.71,0,0,0-114.55-18.92c-90.48,0-172.75,33.8-233.94,89,50,16.21,97.86,41.23,139.59,69.05C7186.63,7082.69,7250.44,7162.24,7290.5,7239.43Z" transform="translate(-6784.32 -6870.32)"/><path class="cls-2" d="M7438.18,6963.65a1266,1266,0,0,1-159,500.61c-87.69-153-238.71-286.91-411-347.32a317.7,317.7,0,0,0-10.86,82.56c0,181.8,153.2,329.18,342.18,329.18s342.18-147.38,342.18-329.18C7541.68,7107,7502,7023.45,7438.18,6963.65Z" transform="translate(-6784.32 -6870.32)"/><path class="cls-3" d="M7033.66,6948.18s113.5,41.15,172.71,115.52c0,0-14.8-99.69-69.08-158.24C7137.29,6905.46,7089.59,6911.79,7033.66,6948.18Z" transform="translate(-6784.32 -6870.32)"/><path class="cls-4" d="M6897.39,7282.94s41.13,151.66,207.9,208.8C7105.29,7491.74,7073.31,7304.92,6897.39,7282.94Z" transform="translate(-6784.32 -6870.32)"/><text class="cls-5" transform="translate(0 795.15)">V<tspan class="cls-6" x="82.32" y="0">A</tspan><tspan class="cls-7" x="169.68" y="0">U</tspan><tspan class="cls-8" x="254.42" y="0">L</tspan><tspan class="cls-9" x="328.45" y="0">T</tspan><tspan class="cls-10" x="415.31" y="0"> </tspan><tspan class="cls-9" x="444.08" y="0">TECH</tspan></text></svg>